<svg xmlns="http://www.w3.org/2000/svg" width="24" height="24" fill="none">
    <path fill="#9295A6" fillRule="evenodd" d="M16.24 22a1 1 0 0 1-1-1v-2.599c.047-.663-.152-1.24-.543-1.659a.999.999 0 0 1 .615-1.677C17.746 14.783 20 13.947 20 9.774c0-.8-.232-1.571-.67-2.227a2.762 2.762 0 0 1-.414-2.053 3.701 3.701 0 0 0-.012-1.419c-.404.12-1.096.405-2.093 1.099-.245.17-.556.221-.842.141a10.192 10.192 0 0 0-5.516 0c-.287.08-.596.029-.84-.141-.988-.687-1.676-.973-2.096-1.091a3.684 3.684 0 0 0-.01 1.408 2.823 2.823 0 0 1-.427 2.077 4 4 0 0 0-.657 2.229c0 3.894 1.88 4.933 4.7 5.296a1 1 0 0 1 .604 1.674 2.095 2.095 0 0 0-.547 1.567l.001.788a1.2 1.2 0 0 1 0 .12L11.182 21a1 1 0 1 1-2 0v-.571c-2.685.35-4.215-1.089-5.276-2.089-.44-.413-.854-.804-1.157-.883a1 1 0 1 1 .502-1.936c.8.208 1.395.769 2.026 1.363 1.022.963 1.992 1.875 3.905 1.52v-.003a3.918 3.918 0 0 1 .225-1.584c-2.054-.512-4.984-2.005-4.984-7.015a5.993 5.993 0 0 1 .987-3.335.833.833 0 0 0 .13-.613 5.688 5.688 0 0 1 .334-3.211c.114-.276.345-.487.63-.575.331-.102 1.551-.297 3.862 1.203a12.186 12.186 0 0 1 5.69 0c2.312-1.5 3.531-1.306 3.862-1.203.285.088.516.299.63.575a5.684 5.684 0 0 1 .335 3.215.78.78 0 0 0 .108.577 5.984 5.984 0 0 1 1.01 3.339c0 5.064-2.924 6.539-4.98 7.033.183.529.26 1.098.216 1.671L17.24 21a1 1 0 0 1-1 1Z" clipRule="evenodd" />
</svg>