  <svg xmlns="http://www.w3.org/2000/svg" width="24" height="24" fill="none">
    <path
      fill="#9295A6"
      fillRule="evenodd"
      d="M20 18c0 .551-.449 1-1 1h-2V9h2c.551 0 1 .449 1 1v8ZM4 18v-8c0-.551.449-1 1-1h2v10H5c-.551 0-1-.449-1-1Zm6-12.5a.5.5 0 0 1 .5-.5h3a.5.5 0 0 1 .5.5V7h-4V5.5ZM9 19h6V9H9v10ZM19 7h-3V5.5C16 4.122 14.878 3 13.5 3h-3A2.503 2.503 0 0 0 8 5.5V7H5c-1.654 0-3 1.346-3 3v8c0 1.654 1.346 3 3 3h14c1.654 0 3-1.346 3-3v-8c0-1.654-1.346-3-3-3Z"
      clipRule="evenodd"
    />
  </svg>